<svg width="100" height="100" viewBox="0 0 100 100" fill="none" xmlns="http://www.w3.org/2000/svg">
<path d="M0 50C0 8.825 8.825 0 50 0C91.175 0 100 8.825 100 50C100 91.175 91.175 100 50 100C8.825 100 0 91.175 0 50Z" fill="#111111"/>
<g clip-path="url(#clip0_43_1480)">
<rect x="17.4012" y="28.7235" width="16.7344" height="4.30312" fill="#4ADE80"/>
<rect x="17.4012" y="33.0266" width="16.7344" height="4.30312" fill="#22C55E"/>
<rect x="17.4012" y="37.3297" width="16.7344" height="4.30312" fill="#22C55E"/>
<rect x="17.4012" y="41.6328" width="16.7344" height="4.30312" fill="#16A34A"/>
<rect x="17.4012" y="45.936" width="16.7344" height="4.30312" fill="#16A34A"/>
<rect x="17.4012" y="50.2391" width="16.7344" height="4.30312" fill="#16A34A"/>
<rect x="17.4012" y="54.5422" width="16.7344" height="4.30312" fill="#15803D"/>
<rect x="17.4012" y="58.8453" width="16.7344" height="4.30312" fill="#15803D"/>
<rect x="17.4012" y="63.1484" width="16.7344" height="4.30312" fill="#15803D"/>
<rect x="17.4012" y="67.4517" width="16.7344" height="4.30312" fill="#15803D"/>
</g>
<path d="M33.6574 71.7547L33.8965 28.7235H37.9606H42.5028L58.6622 52.075H54.8217L70.9153 28.2454H79.7547V71.7547H73.8199H67.6844V48.39L69.4523 48.8813L60.6129 61.656H52.8099L44.0316 48.8813L45.7385 48.39V71.7547H39.634H33.6574Z" fill="white"/>
<defs>
<clipPath id="clip0_43_1480">
<path d="M17.4012 29.6798C17.4012 29.1516 17.8293 28.7235 18.3574 28.7235H34.1356V71.7548H18.3574C17.8293 71.7548 17.4012 71.3266 17.4012 70.7985V29.6798Z" fill="white"/>
</clipPath>
</defs>
</svg>
